# xmcd CD database file
#
# Track frame offsets:
#	150
#	28110
#	52462
#	73987
#	95705
#	119135
#	139157
#	175342
#	206540
#	221165
#
# Disc length: 3128 seconds
#
# Revision: 0
# Processed by: cddbd v1.4PL0 Copyright (c) Steve Scherf et al.
# Submitted via: CDex 1.40Beta9
#
DISCID=af0c360a
DTITLE=Hjert, Johan - Laguna - Dolphin Dreaming
DYEAR=2001
DGENRE=Native American
TTITLE0=Ac quiesco
TTITLE1=Apertus
TTITLE2=Gratus
TTITLE3=Animus
TTITLE4=Gaudium
TTITLE5=Océanus
TTITLE6=Credo
TTITLE7=Dulcis
TTITLE8=Canorus
TTITLE9=Laguna
EXTD=YEAR: 2001 ID3G: 64
EXTT0=
EXTT1=
EXTT2=
EXTT3=
EXTT4=
EXTT5=
EXTT6=
EXTT7=
EXTT8=
EXTT9=
PLAYORDER=
